<svg xmlns="http://www.w3.org/2000/svg" viewBox="0 0 100 100" width="100" height="100">
  <defs>
    <linearGradient id="cloudGradient" x1="0%" y1="0%" x2="100%" y2="100%">
      <stop offset="0%" style="stop-color:#6366f1"/>
      <stop offset="50%" style="stop-color:#8b5cf6"/>
      <stop offset="100%" style="stop-color:#d946ef"/>
    </linearGradient>
    <linearGradient id="cloudGradient2" x1="0%" y1="0%" x2="100%" y2="100%">
      <stop offset="0%" style="stop-color:#8b5cf6"/>
      <stop offset="100%" style="stop-color:#ec4899"/>
    </linearGradient>
  </defs>

  <!-- Main cloud shape -->
  <path d="M75 35 C75 25 65 18 55 20 C50 12 38 10 28 18 C18 18 12 28 15 38 C8 42 5 52 12 60 C12 68 20 75 32 75 L68 75 C80 75 88 65 85 55 C92 48 90 38 82 35 C82 30 78 28 75 35 Z"
        fill="url(#cloudGradient)" />

  <!-- Secondary cloud layer for depth -->
  <ellipse cx="55" cy="70" rx="25" ry="18" fill="url(#cloudGradient2)" opacity="0.9"/>

  <!-- Pixelated squares - top right cluster -->
  <rect x="78" y="22" width="8" height="8" fill="#6366f1" rx="1"/>
  <rect x="88" y="18" width="6" height="6" fill="#8b5cf6" rx="1"/>
  <rect x="85" y="28" width="5" height="5" fill="#a78bfa" rx="1"/>
  <rect x="92" y="26" width="4" height="4" fill="#c4b5fd" rx="1"/>
  <rect x="82" y="36" width="4" height="4" fill="#8b5cf6" rx="1"/>
  <rect x="90" y="34" width="3" height="3" fill="#a78bfa" rx="1"/>
  <rect x="94" y="32" width="2" height="2" fill="#c4b5fd" rx="1"/>

  <!-- Pixelated squares - bottom left cluster -->
  <rect x="8" y="65" width="6" height="6" fill="#d946ef" rx="1"/>
  <rect x="3" y="72" width="5" height="5" fill="#ec4899" rx="1"/>
  <rect x="12" y="74" width="4" height="4" fill="#f472b6" rx="1"/>
  <rect x="5" y="62" width="4" height="4" fill="#c026d3" rx="1"/>
  <rect x="15" y="80" width="3" height="3" fill="#ec4899" rx="1"/>

  <!-- "D" letter in center -->
  <text x="48" y="58" font-family="Inter, Arial, sans-serif" font-size="28" font-weight="700" fill="white" text-anchor="middle">D</text>
</svg>
